<svg id="ICN_Rating" xmlns="http://www.w3.org/2000/svg" width="20" height="20" viewBox="0 0 20 20">
  <path id="star_FILL0_wght400_GRAD0_opsz24" d="M143.821-806.947l-3.045,1.834a.667.667,0,0,1-.422.11.709.709,0,0,1-.385-.147.881.881,0,0,1-.257-.321.642.642,0,0,1-.037-.431l.807-3.467-2.7-2.33a.7.7,0,0,1-.229-.376.731.731,0,0,1,.028-.413.786.786,0,0,1,.22-.33.763.763,0,0,1,.4-.165l3.559-.312,1.376-3.265a.658.658,0,0,1,.284-.33.786.786,0,0,1,.394-.11.787.787,0,0,1,.394.11.659.659,0,0,1,.284.33l1.376,3.265,3.559.312a.763.763,0,0,1,.4.165.786.786,0,0,1,.22.33.731.731,0,0,1,.027.413.7.7,0,0,1-.229.376l-2.7,2.33.807,3.467a.641.641,0,0,1-.037.431.881.881,0,0,1-.257.321.709.709,0,0,1-.385.147.667.667,0,0,1-.422-.11ZM143.821-810.634Z" transform="translate(-133.915 821)" fill="#0d0d0d"/>
  <rect id="Rectangle_429" data-name="Rectangle 429" width="20" height="20" fill="none"/>
</svg>
